# Blender v2.93.4 OBJ File: ''
# www.blender.org
mtllib PlaceholderRailing2.mtl
o Cube_Cube.001
v 1.469118 1.434475 0.143877
v 1.469118 1.434475 -0.143877
v 1.181365 1.434475 0.143877
v 1.181365 1.434475 -0.143877
v 1.469118 1.326194 0.143877
v 1.469118 1.049828 0.143877
v 1.469118 1.049828 -0.143877
v 1.469118 1.326194 -0.143877
v 1.181365 1.049828 -0.143877
v 1.181365 1.326194 -0.143877
v 1.181365 1.049828 0.143877
v 1.181365 1.326194 0.143877
v 1.469118 0.477883 0.143877
v 1.469118 0.477883 -0.143877
v 1.181365 0.477883 -0.143877
v 1.181365 0.477883 0.143877
v 1.469118 0.477883 0.143877
v 1.469118 0.477883 -0.143877
v 1.181365 0.477883 -0.143877
v 1.181365 0.477883 0.143877
v 1.469118 1.434475 -0.047959
v 1.469118 1.434475 0.047959
v 1.181365 1.434475 0.047959
v 1.181365 1.434475 -0.047959
v 1.181365 1.326194 -0.047959
v 1.181365 1.326194 0.047959
v 1.181365 1.049828 -0.047959
v 1.181365 1.049828 0.047959
v 1.469118 1.326194 0.047959
v 1.469118 1.326194 -0.047959
v 1.469118 1.049828 0.047959
v 1.469118 1.049828 -0.047959
v 1.181365 0.477883 -0.047959
v 1.181365 0.477883 0.047959
v 1.469118 0.477883 0.047959
v 1.469118 0.477883 -0.047959
v 1.181365 0.477883 -0.047959
v 1.181365 0.477883 0.047959
v 1.469118 0.477883 0.047959
v 1.469118 0.477883 -0.047959
v 1.469118 -0.142092 0.143877
v 1.469118 -0.142092 -0.143877
v 1.181365 -0.142092 0.143877
v 1.181365 -0.142092 -0.143877
v 1.469118 -0.033811 0.143877
v 1.469118 0.242555 0.143877
v 1.469118 0.242555 -0.143877
v 1.469118 -0.033811 -0.143877
v 1.181365 0.242555 -0.143877
v 1.181365 -0.033811 -0.143877
v 1.181365 0.242555 0.143877
v 1.181365 -0.033811 0.143877
v 1.469118 0.814501 0.143877
v 1.469118 0.814501 -0.143877
v 1.181365 0.814501 -0.143877
v 1.181365 0.814501 0.143877
v 1.469118 0.814501 0.143877
v 1.469118 0.814501 -0.143877
v 1.181365 0.814501 -0.143877
v 1.181365 0.814501 0.143877
v 1.469118 -0.142092 -0.047959
v 1.469118 -0.142092 0.047959
v 1.181365 -0.142092 0.047959
v 1.181365 -0.142092 -0.047959
v 1.181365 -0.033811 -0.047959
v 1.181365 -0.033811 0.047959
v 1.181365 0.242555 -0.047959
v 1.181365 0.242555 0.047959
v 1.469118 -0.033811 0.047959
v 1.469118 -0.033811 -0.047959
v 1.469118 0.242555 0.047959
v 1.469118 0.242555 -0.047959
v 1.181365 0.814501 -0.047959
v 1.181365 0.814501 0.047959
v 1.469118 0.814501 0.047959
v 1.469118 0.814501 -0.047959
v 1.181365 0.814501 -0.047959
v 1.181365 0.814501 0.047959
v 1.469118 0.814501 0.047959
v 1.469118 0.814501 -0.047959
v -1.469118 1.434475 0.143877
v -1.469118 1.434475 -0.143877
v -1.181365 1.434475 0.143877
v -1.181365 1.434475 -0.143877
v -1.469118 1.326194 0.143877
v -1.469118 1.049828 0.143877
v -1.469118 1.049828 -0.143877
v -1.469118 1.326194 -0.143877
v -1.181365 1.049828 -0.143877
v -1.181365 1.326194 -0.143877
v -1.181365 1.049828 0.143877
v -1.181365 1.326194 0.143877
v -1.469118 0.477883 0.143877
v -1.469118 0.477883 -0.143877
v -1.181365 0.477883 -0.143877
v -1.181365 0.477883 0.143877
v -1.469118 0.477883 0.143877
v -1.469118 0.477883 -0.143877
v -1.181365 0.477883 -0.143877
v -1.181365 0.477883 0.143877
v -1.469118 1.434475 -0.047959
v -1.469118 1.434475 0.047959
v -1.181365 1.434475 0.047959
v -1.181365 1.434475 -0.047959
v -1.181365 1.326194 -0.047959
v -1.181365 1.326194 0.047959
v -1.181365 1.049828 -0.047959
v -1.181365 1.049828 0.047959
v -1.469118 1.326194 0.047959
v -1.469118 1.326194 -0.047959
v -1.469118 1.049828 0.047959
v -1.469118 1.049828 -0.047959
v -1.181365 0.477883 -0.047959
v -1.181365 0.477883 0.047959
v -1.469118 0.477883 0.047959
v -1.469118 0.477883 -0.047959
v -1.181365 0.477883 -0.047959
v -1.181365 0.477883 0.047959
v -1.469118 0.477883 0.047959
v -1.469118 0.477883 -0.047959
v 0.000000 1.326194 -0.047959
v 0.000000 1.326194 0.047959
v 0.000000 1.049828 -0.047959
v 0.000000 1.049828 0.047959
v 0.000000 0.477883 -0.047959
v 0.000000 0.477883 0.047959
v -1.469118 -0.142092 0.143877
v -1.469118 -0.142092 -0.143877
v -1.181365 -0.142092 0.143877
v -1.181365 -0.142092 -0.143877
v -1.469118 -0.033811 0.143877
v -1.469118 0.242555 0.143877
v -1.469118 0.242555 -0.143877
v -1.469118 -0.033811 -0.143877
v -1.181365 0.242555 -0.143877
v -1.181365 -0.033811 -0.143877
v -1.181365 0.242555 0.143877
v -1.181365 -0.033811 0.143877
v -1.469118 0.814501 0.143877
v -1.469118 0.814501 -0.143877
v -1.181365 0.814501 -0.143877
v -1.181365 0.814501 0.143877
v -1.469118 0.814501 0.143877
v -1.469118 0.814501 -0.143877
v -1.181365 0.814501 -0.143877
v -1.181365 0.814501 0.143877
v -1.469118 -0.142092 -0.047959
v -1.469118 -0.142092 0.047959
v -1.181365 -0.142092 0.047959
v -1.181365 -0.142092 -0.047959
v -1.181365 -0.033811 -0.047959
v -1.181365 -0.033811 0.047959
v -1.181365 0.242555 -0.047959
v -1.181365 0.242555 0.047959
v -1.469118 -0.033811 0.047959
v -1.469118 -0.033811 -0.047959
v -1.469118 0.242555 0.047959
v -1.469118 0.242555 -0.047959
v -1.181365 0.814501 -0.047959
v -1.181365 0.814501 0.047959
v -1.469118 0.814501 0.047959
v -1.469118 0.814501 -0.047959
v -1.181365 0.814501 -0.047959
v -1.181365 0.814501 0.047959
v -1.469118 0.814501 0.047959
v -1.469118 0.814501 -0.047959
v 0.000000 -0.033811 -0.047959
v 0.000000 -0.033811 0.047959
v 0.000000 0.242555 -0.047959
v 0.000000 0.242555 0.047959
v 0.000000 0.814501 -0.047959
v 0.000000 0.814501 0.047959
vt 0.125000 0.666667
vt 0.375000 0.666667
vt 0.375000 0.750000
vt 0.125000 0.750000
vt 0.413198 0.750000
vt 0.413198 1.000000
vt 0.375000 1.000000
vt 0.496531 0.750000
vt 0.496531 1.000000
vt 0.413198 0.666667
vt 0.496531 0.666667
vt 0.375000 0.250000
vt 0.413198 0.250000
vt 0.413198 0.500000
vt 0.375000 0.500000
vt 0.496531 0.250000
vt 0.496531 0.500000
vt 0.375000 0.166667
vt 0.413198 0.166667
vt 0.496531 0.166667
vt 0.000000 0.000000
vt 0.000000 0.000000
vt 0.496531 0.666667
vt 0.496531 0.750000
vt 0.537664 0.750000
vt 0.537664 0.750000
vt 0.537664 0.500000
vt 0.537664 0.500000
vt 0.537664 0.250000
vt 0.537664 0.250000
vt 0.537664 0.583333
vt 0.537664 0.166667
vt 0.537664 1.000000
vt 0.537664 1.000000
vt 0.537664 0.750000
vt 0.537664 0.083333
vt 0.537664 0.083333
vt 0.537664 0.000000
vt 0.537664 0.000000
vt 0.537664 0.583333
vt 0.537664 0.666667
vt 0.537664 0.666667
vt 0.537664 0.166667
vt 0.000000 0.000000
vt 0.000000 0.000000
vt 0.000000 0.000000
vt 0.000000 0.000000
vt 0.413198 0.000000
vt 0.496531 0.000000
vt 0.496531 0.083333
vt 0.413198 0.083333
vt 0.375000 0.000000
vt 0.375000 0.083333
vt 0.496531 0.583333
vt 0.413198 0.583333
vt 0.496531 0.583333
vt 0.413198 0.583333
vt 0.375000 0.583333
vt 0.125000 0.500000
vt 0.125000 0.583333
vt 0.413198 0.666667
vt 0.496531 0.666667
vt 0.537664 0.583333
vt 0.537664 0.666667
vt 0.125000 0.666667
vt 0.125000 0.750000
vt 0.375000 0.750000
vt 0.375000 0.666667
vt 0.375000 1.000000
vt 0.413198 1.000000
vt 0.413198 0.750000
vt 0.496531 1.000000
vt 0.413198 0.666667
vt 0.375000 0.250000
vt 0.375000 0.500000
vt 0.413198 0.500000
vt 0.413198 0.250000
vt 0.496531 0.500000
vt 0.496531 0.250000
vt 0.375000 0.166667
vt 0.413198 0.166667
vt 0.496531 0.166667
vt 0.000000 0.000000
vt 0.000000 0.000000
vt 0.000000 0.000000
vt 0.000000 0.000000
vt 0.537664 0.500000
vt 0.537664 0.500000
vt 0.537664 0.250000
vt 0.537664 0.250000
vt 0.537664 0.583333
vt 0.537664 0.166667
vt 0.537664 1.000000
vt 0.537664 1.000000
vt 0.537664 0.750000
vt 0.537664 0.083333
vt 0.537664 0.083333
vt 0.537664 0.000000
vt 0.537664 0.000000
vt 0.537664 0.583333
vt 0.537664 0.666667
vt 0.537664 0.666667
vt 0.537664 0.166667
vt 0.000000 0.000000
vt 0.000000 0.000000
vt 0.000000 0.000000
vt 0.000000 0.000000
vt 0.413198 0.000000
vt 0.413198 0.083333
vt 0.496531 0.083333
vt 0.496531 0.000000
vt 0.375000 0.000000
vt 0.375000 0.083333
vt 0.413198 0.583333
vt 0.496531 0.583333
vt 0.413198 0.583333
vt 0.496531 0.583333
vt 0.375000 0.583333
vt 0.125000 0.500000
vt 0.125000 0.583333
vt 0.496531 0.666667
vt 0.413198 0.666667
vt 0.537664 0.583333
vt 0.537664 0.666667
vt 0.000000 0.000000
vt 0.000000 0.000000
vt 0.000000 0.000000
vt 0.000000 0.000000
vt 0.000000 0.000000
vt 0.000000 0.000000
vt 0.000000 0.000000
vt 0.000000 0.000000
vt 0.000000 0.000000
vt 0.000000 0.000000
vt 0.000000 0.000000
vt 0.000000 0.000000
vt 0.000000 0.000000
vt 0.000000 0.000000
vt 0.000000 0.000000
vt 0.000000 0.000000
vt 0.000000 0.000000
vt 0.000000 0.000000
vt 0.000000 0.000000
vt 0.000000 0.000000
vt 0.000000 0.000000
vt 0.125000 0.666667
vt 0.125000 0.750000
vt 0.375000 0.750000
vt 0.375000 0.666667
vt 0.375000 1.000000
vt 0.413198 1.000000
vt 0.413198 0.750000
vt 0.496531 1.000000
vt 0.496531 0.750000
vt 0.413198 0.666667
vt 0.496531 0.666667
vt 0.375000 0.250000
vt 0.375000 0.500000
vt 0.413198 0.500000
vt 0.413198 0.250000
vt 0.496531 0.500000
vt 0.496531 0.250000
vt 0.375000 0.166667
vt 0.413198 0.166667
vt 0.496531 0.166667
vt 0.000000 0.000000
vt 0.000000 0.000000
vt 0.537664 0.500000
vt 0.537664 0.250000
vt 0.537664 0.250000
vt 0.537664 0.500000
vt 0.537664 0.583333
vt 0.537664 0.166667
vt 0.537664 1.000000
vt 0.537664 0.750000
vt 0.537664 0.750000
vt 0.537664 1.000000
vt 0.537664 0.083333
vt 0.537664 0.000000
vt 0.537664 0.000000
vt 0.537664 0.083333
vt 0.537664 0.583333
vt 0.537664 0.666667
vt 0.537664 0.666667
vt 0.537664 0.166667
vt 0.000000 0.000000
vt 0.000000 0.000000
vt 0.413198 0.000000
vt 0.413198 0.083333
vt 0.496531 0.083333
vt 0.496531 0.000000
vt 0.375000 0.000000
vt 0.375000 0.083333
vt 0.413198 0.583333
vt 0.496531 0.583333
vt 0.375000 0.583333
vt 0.125000 0.500000
vt 0.125000 0.583333
vt 0.125000 0.666667
vt 0.375000 0.666667
vt 0.375000 0.750000
vt 0.125000 0.750000
vt 0.413198 0.750000
vt 0.413198 1.000000
vt 0.375000 1.000000
vt 0.496531 0.750000
vt 0.496531 1.000000
vt 0.413198 0.666667
vt 0.496531 0.666667
vt 0.375000 0.250000
vt 0.413198 0.250000
vt 0.413198 0.500000
vt 0.375000 0.500000
vt 0.496531 0.250000
vt 0.496531 0.500000
vt 0.375000 0.166667
vt 0.413198 0.166667
vt 0.496531 0.166667
vt 0.000000 0.000000
vt 0.000000 0.000000
vt 0.537664 0.500000
vt 0.537664 0.250000
vt 0.537664 0.250000
vt 0.537664 0.500000
vt 0.537664 0.583333
vt 0.537664 0.166667
vt 0.537664 1.000000
vt 0.537664 0.750000
vt 0.537664 0.750000
vt 0.537664 1.000000
vt 0.537664 0.083333
vt 0.537664 0.000000
vt 0.537664 0.000000
vt 0.537664 0.083333
vt 0.537664 0.583333
vt 0.537664 0.666667
vt 0.537664 0.666667
vt 0.537664 0.166667
vt 0.000000 0.000000
vt 0.413198 0.000000
vt 0.496531 0.000000
vt 0.496531 0.083333
vt 0.413198 0.083333
vt 0.375000 0.000000
vt 0.375000 0.083333
vt 0.496531 0.583333
vt 0.413198 0.583333
vt 0.375000 0.583333
vt 0.125000 0.500000
vt 0.125000 0.583333
vt 0.000000 0.000000
vt 0.000000 0.000000
vt 0.000000 0.000000
vt 0.000000 0.000000
vt 0.000000 0.000000
vt 0.000000 0.000000
vt 0.000000 0.000000
vt 0.000000 0.000000
vt 0.000000 0.000000
vt 0.000000 0.000000
vt 0.000000 0.000000
vt 0.000000 0.000000
vt 0.000000 0.000000
vt 0.000000 0.000000
vt 0.000000 0.000000
vt 0.000000 0.000000
vt 0.000000 0.000000
vt 0.000000 0.000000
vt 0.000000 0.000000
vt 0.000000 0.000000
vn 0.0000 1.0000 0.0000
vn 0.0000 0.0000 1.0000
vn -1.0000 0.0000 0.0000
vn 0.0000 -0.0000 -1.0000
vn 1.0000 -0.0000 0.0000
vn 0.0000 -1.0000 0.0000
usemtl None
s off
f 22/1/1 23/2/1 3/3/1 1/4/1
f 3/3/2 12/5/2 5/6/2 1/7/2
f 12/5/2 11/8/2 6/9/2 5/6/2
f 23/2/3 26/10/3 12/5/3 3/3/3
f 26/10/3 28/11/3 11/8/3 12/5/3
f 2/12/4 8/13/4 10/14/4 4/15/4
f 8/13/4 7/16/4 9/17/4 10/14/4
f 21/18/5 30/19/5 8/13/5 2/12/5
f 30/19/5 32/20/5 7/16/5 8/13/5
f 11/8/3 28/11/3 78/21/3 38/22/3 68/23/3 51/24/3 20/25/3 60/26/3
f 15/27/2 19/28/2 18/29/2 14/30/2
f 37/31/1 40/32/1 18/29/1 19/28/1
f 13/33/2 17/34/2 20/25/2 16/35/2
f 35/36/2 39/37/2 17/38/2 13/39/2
f 33/40/2 37/31/2 19/28/2 15/27/2
f 16/35/2 20/25/2 38/41/2 34/42/2
f 34/42/2 38/41/2 37/31/2 33/40/2
f 14/30/2 18/29/2 40/32/2 36/43/2
f 36/43/2 40/32/2 39/37/2 35/36/2
f 20/25/1 17/38/1 39/37/1 38/41/1
f 38/41/1 39/37/1 40/32/1 37/31/1
f 89/44/5 107/45/5 163/46/5 145/47/5
f 5/48/5 6/49/5 31/50/5 29/51/5
f 29/51/5 31/50/5 32/20/5 30/19/5
f 1/52/5 5/48/5 29/51/5 22/53/5
f 22/53/5 29/51/5 30/19/5 21/18/5
f 10/14/3 9/17/3 27/54/3 25/55/3
f 25/55/4 27/54/4 123/56/4 121/57/4
f 4/15/3 10/14/3 25/55/3 24/58/3
f 24/58/3 25/55/3 26/10/3 23/2/3
f 2/59/1 4/15/1 24/58/1 21/60/1
f 21/60/1 24/58/1 23/2/1 22/1/1
f 28/11/2 26/10/2 122/61/2 124/62/2
f 33/40/1 125/63/1 126/64/1 34/42/1
f 26/10/1 25/55/1 121/57/1 122/61/1
f 62/65/6 41/66/6 43/67/6 63/68/6
f 43/67/2 41/69/2 45/70/2 52/71/2
f 52/71/2 45/70/2 46/72/2 51/24/2
f 63/68/3 43/67/3 52/71/3 66/73/3
f 66/73/3 52/71/3 51/24/3 68/23/3
f 42/74/4 44/75/4 50/76/4 48/77/4
f 48/77/4 50/76/4 49/78/4 47/79/4
f 61/80/5 42/74/5 48/77/5 70/81/5
f 70/81/5 48/77/5 47/79/5 72/82/5
f 118/83/5 100/84/5 137/85/5 154/86/5
f 55/87/2 59/88/2 58/89/2 54/90/2
f 77/91/1 80/92/1 58/89/1 59/88/1
f 53/93/2 57/94/2 60/26/2 56/95/2
f 75/96/2 79/97/2 57/98/2 53/99/2
f 73/100/2 77/91/2 59/88/2 55/87/2
f 56/95/2 60/26/2 78/101/2 74/102/2
f 74/102/2 78/101/2 77/91/2 73/100/2
f 54/90/2 58/89/2 80/92/2 76/103/2
f 76/103/2 80/92/2 79/97/2 75/96/2
f 60/26/1 57/98/1 79/97/1 78/101/1
f 78/101/1 79/97/1 80/92/1 77/91/1
f 19/104/3 37/105/3 77/106/3 59/107/3
f 45/108/5 69/109/5 71/110/5 46/111/5
f 69/109/5 70/81/5 72/82/5 71/110/5
f 41/112/5 62/113/5 69/109/5 45/108/5
f 62/113/5 61/80/5 70/81/5 69/109/5
f 50/76/3 65/114/3 67/115/3 49/78/3
f 65/114/4 167/116/4 169/117/4 67/115/4
f 44/75/3 64/118/3 65/114/3 50/76/3
f 64/118/3 63/68/3 66/73/3 65/114/3
f 42/119/6 61/120/6 64/118/6 44/75/6
f 61/120/6 62/65/6 63/68/6 64/118/6
f 68/23/2 170/121/2 168/122/2 66/73/2
f 73/100/1 171/123/1 172/124/1 74/102/1
f 66/73/6 168/122/6 167/116/6 65/114/6
f 11/8/2 60/26/2 57/94/2 6/9/2
f 58/89/4 59/88/4 9/17/4 7/16/4
f 126/125/2 170/121/2 68/23/2 38/22/2
f 38/22/2 78/21/2 172/126/2 126/125/2
f 124/62/2 172/126/2 78/21/2 28/11/2
f 57/94/2 60/26/2 20/25/2 17/34/2
f 51/24/2 46/72/2 17/34/2 20/25/2
f 46/127/5 71/128/5 39/129/5 17/130/5
f 71/128/5 72/131/5 40/132/5 39/129/5
f 72/131/5 47/133/5 18/134/5 40/132/5
f 47/133/4 49/135/4 19/104/4 18/134/4
f 17/130/5 39/129/5 79/136/5 57/137/5
f 39/129/5 40/132/5 80/138/5 79/136/5
f 40/132/5 18/134/5 58/139/5 80/138/5
f 18/134/4 19/104/4 59/107/4 58/139/4
f 57/137/5 79/136/5 31/140/5 6/141/5
f 79/136/5 80/138/5 32/142/5 31/140/5
f 80/138/5 58/139/5 7/143/5 32/142/5
f 37/105/4 67/115/4 169/117/4 125/144/4
f 125/144/4 171/145/4 77/106/4 37/105/4
f 123/56/4 27/54/4 77/106/4 171/145/4
f 102/146/1 81/147/1 83/148/1 103/149/1
f 83/148/2 81/150/2 85/151/2 92/152/2
f 92/152/2 85/151/2 86/153/2 91/154/2
f 103/149/5 83/148/5 92/152/5 106/155/5
f 106/155/5 92/152/5 91/154/5 108/156/5
f 82/157/4 84/158/4 90/159/4 88/160/4
f 88/160/4 90/159/4 89/161/4 87/162/4
f 101/163/3 82/157/3 88/160/3 110/164/3
f 110/164/3 88/160/3 87/162/3 112/165/3
f 164/166/5 146/167/5 100/84/5 118/83/5
f 95/168/2 94/169/2 98/170/2 99/171/2
f 117/172/1 99/171/1 98/170/1 120/173/1
f 93/174/2 96/175/2 100/176/2 97/177/2
f 115/178/2 93/179/2 97/180/2 119/181/2
f 113/182/2 95/168/2 99/171/2 117/172/2
f 96/175/2 114/183/2 118/184/2 100/176/2
f 114/183/2 113/182/2 117/172/2 118/184/2
f 94/169/2 116/185/2 120/173/2 98/170/2
f 116/185/2 115/178/2 119/181/2 120/173/2
f 100/176/1 118/184/1 119/181/1 97/180/1
f 118/184/1 117/172/1 120/173/1 119/181/1
f 59/107/3 77/106/3 27/186/3 9/187/3
f 85/188/3 109/189/3 111/190/3 86/191/3
f 109/189/3 110/164/3 112/165/3 111/190/3
f 81/192/3 102/193/3 109/189/3 85/188/3
f 102/193/3 101/163/3 110/164/3 109/189/3
f 90/159/5 105/194/5 107/195/5 89/161/5
f 105/194/4 121/57/4 123/56/4 107/195/4
f 84/158/5 104/196/5 105/194/5 90/159/5
f 104/196/5 103/149/5 106/155/5 105/194/5
f 82/197/1 101/198/1 104/196/1 84/158/1
f 101/198/1 102/146/1 103/149/1 104/196/1
f 108/156/2 124/62/2 122/61/2 106/155/2
f 113/182/1 114/183/1 126/64/1 125/63/1
f 106/155/1 122/61/1 121/57/1 105/194/1
f 148/199/6 149/200/6 129/201/6 127/202/6
f 129/201/2 138/203/2 131/204/2 127/205/2
f 138/203/2 137/206/2 132/207/2 131/204/2
f 149/200/5 152/208/5 138/203/5 129/201/5
f 152/208/5 154/209/5 137/206/5 138/203/5
f 128/210/4 134/211/4 136/212/4 130/213/4
f 134/211/4 133/214/4 135/215/4 136/212/4
f 147/216/3 156/217/3 134/211/3 128/210/3
f 156/217/3 158/218/3 133/214/3 134/211/3
f 164/166/5 108/219/5 91/220/5 146/167/5
f 141/221/2 140/222/2 144/223/2 145/224/2
f 163/225/1 145/224/1 144/223/1 166/226/1
f 139/227/2 142/228/2 146/229/2 143/230/2
f 161/231/2 139/232/2 143/233/2 165/234/2
f 159/235/2 141/221/2 145/224/2 163/225/2
f 142/228/2 160/236/2 164/237/2 146/229/2
f 160/236/2 159/235/2 163/225/2 164/237/2
f 140/222/2 162/238/2 166/226/2 144/223/2
f 162/238/2 161/231/2 165/234/2 166/226/2
f 146/229/1 164/237/1 165/234/1 143/233/1
f 164/237/1 163/225/1 166/226/1 165/234/1
f 49/135/3 67/239/3 37/105/3 19/104/3
f 131/240/3 132/241/3 157/242/3 155/243/3
f 155/243/3 157/242/3 158/218/3 156/217/3
f 127/244/3 131/240/3 155/243/3 148/245/3
f 148/245/3 155/243/3 156/217/3 147/216/3
f 136/212/5 135/215/5 153/246/5 151/247/5
f 151/247/4 153/246/4 169/117/4 167/116/4
f 130/213/5 136/212/5 151/247/5 150/248/5
f 150/248/5 151/247/5 152/208/5 149/200/5
f 128/249/6 130/213/6 150/248/6 147/250/6
f 147/250/6 150/248/6 149/200/6 148/199/6
f 154/209/2 152/208/2 168/122/2 170/121/2
f 159/235/1 160/236/1 172/124/1 171/123/1
f 152/208/6 151/247/6 167/116/6 168/122/6
f 91/154/2 86/153/2 143/230/2 146/229/2
f 144/223/4 87/162/4 89/161/4 145/224/4
f 126/125/2 118/83/2 154/209/2 170/121/2
f 118/83/2 126/125/2 172/126/2 164/166/2
f 124/62/2 108/156/2 164/166/2 172/126/2
f 143/230/2 97/177/2 100/176/2 146/229/2
f 137/206/2 100/176/2 97/177/2 132/207/2
f 132/251/3 97/252/3 119/253/3 157/254/3
f 157/254/3 119/253/3 120/255/3 158/256/3
f 158/256/3 120/255/3 98/257/3 133/258/3
f 133/258/4 98/257/4 99/259/4 135/260/4
f 97/252/3 143/261/3 165/262/3 119/253/3
f 119/253/3 165/262/3 166/263/3 120/255/3
f 120/255/3 166/263/3 144/264/3 98/257/3
f 98/257/4 144/264/4 145/47/4 99/259/4
f 143/261/3 86/265/3 111/266/3 165/262/3
f 165/262/3 111/266/3 112/267/3 166/263/3
f 166/263/3 112/267/3 87/268/3 144/264/3
f 117/269/4 125/144/4 169/117/4 153/246/4
f 125/144/4 117/269/4 163/46/4 171/145/4
f 123/56/4 171/145/4 163/46/4 107/195/4
f 145/47/5 163/46/5 117/269/5 99/259/5
f 99/259/5 117/269/5 153/270/5 135/260/5
