# Blender v2.93.4 OBJ File: ''
# www.blender.org
mtllib jail cell holder.mtl
o Plane
v -0.115767 5.703865 1.923030
v 0.115766 5.703865 1.923030
v -0.115766 -0.026317 1.923030
v 0.115767 -0.026317 1.923030
v -0.115767 5.703865 -1.923030
v 0.115766 5.703865 -1.923030
v -0.115766 -0.026317 -1.923030
v 0.115767 -0.026317 -1.923030
v -0.115767 5.703865 -0.000000
v 0.115766 5.703865 -0.000000
v -0.115766 -0.026317 -0.000000
v 0.115767 -0.026317 -0.000000
v -0.115767 5.703865 0.961515
v 0.115766 5.703865 0.961515
v -0.115766 -0.026317 -0.961515
v 0.115767 -0.026317 -0.961515
v -0.115767 5.703865 -0.961515
v 0.115766 5.703865 -0.961515
v -0.115766 -0.026317 0.961515
v 0.115767 -0.026317 0.961515
v -0.115767 5.703865 1.442273
v 0.115766 5.703865 1.442273
v -0.115766 0.689956 1.923030
v 0.115767 0.689956 1.923030
v -0.115766 -0.026317 -1.442273
v 0.115767 -0.026317 -1.442273
v -0.115767 4.987592 -1.923030
v 0.115766 4.987592 -1.923030
v -0.115767 5.703865 -0.480758
v 0.115766 5.703865 -0.480758
v -0.115766 -0.026317 0.480758
v 0.115767 -0.026317 0.480758
v -0.115767 4.987592 -0.000000
v 0.115766 4.987592 -0.000000
v -0.115767 5.703865 0.480758
v 0.115766 5.703865 0.480758
v -0.115766 -0.026317 -0.480758
v 0.115767 -0.026317 -0.480758
v -0.115767 5.703865 -1.442273
v 0.115766 5.703865 -1.442273
v -0.115767 4.987592 1.923030
v 0.115766 4.987592 1.923030
v -0.115766 -0.026317 1.442273
v 0.115767 -0.026317 1.442273
v -0.115766 0.689956 -1.923030
v 0.115767 0.689956 -1.923030
v -0.115766 0.689956 -0.000000
v 0.115767 0.689956 -0.000000
v -0.115766 0.689956 0.961515
v 0.115767 0.689956 0.961515
v -0.115767 4.987592 0.961515
v 0.115766 4.987592 0.961515
v -0.115767 4.987592 -0.961515
v 0.115766 4.987592 -0.961515
v -0.115766 0.689956 -0.961515
v 0.115767 0.689956 -0.961515
v -0.115766 0.689956 -0.480758
v 0.115767 0.689956 -0.480758
v -0.115767 4.987592 -0.480758
v 0.115766 4.987592 -0.480758
v -0.115767 4.987592 -1.442273
v 0.115766 4.987592 -1.442273
v -0.115767 4.987592 1.442273
v 0.115766 4.987592 1.442273
v -0.115767 4.987592 0.480758
v 0.115766 4.987592 0.480758
v -0.115766 0.689956 1.442273
v 0.115767 0.689956 1.442273
v -0.115766 0.689956 0.480758
v 0.115767 0.689956 0.480758
v -0.115766 0.689956 -1.442273
v 0.115767 0.689956 -1.442273
v 0.000000 0.582515 -1.514386
v 0.000000 0.081124 -1.514386
v 0.000000 0.081124 -1.850916
v 0.000000 0.582515 -1.850916
v 0.000000 0.582515 0.408644
v 0.000000 0.081124 0.408644
v 0.000000 0.081124 0.072114
v 0.000000 0.582515 0.072114
v 0.000000 0.582515 1.370159
v 0.000000 0.081124 1.370159
v 0.000000 0.081124 1.033629
v 0.000000 0.582515 1.033629
v 0.000000 0.797397 0.889401
v 0.000000 0.797397 0.552871
v -0.000000 4.880151 0.552871
v -0.000000 4.880151 0.889401
v 0.000000 0.797397 -1.033629
v 0.000000 0.797397 -1.370159
v -0.000000 4.880151 -1.370159
v -0.000000 4.880151 -1.033629
v 0.000000 0.582515 -0.552871
v 0.000000 0.081124 -0.552871
v 0.000000 0.081124 -0.889401
v 0.000000 0.582515 -0.889401
v 0.000000 0.582515 -0.072114
v 0.000000 0.081124 -0.072114
v 0.000000 0.081124 -0.408644
v 0.000000 0.582515 -0.408644
v 0.000000 0.797397 -0.552871
v 0.000000 0.797397 -0.889401
v -0.000000 4.880151 -0.889401
v -0.000000 4.880151 -0.552871
v -0.000000 4.880151 -1.514386
v 0.000000 0.797397 -1.514386
v 0.000000 0.797397 -1.850916
v -0.000000 4.880151 -1.850916
v -0.000000 5.596424 -0.552871
v -0.000000 5.095033 -0.552871
v -0.000000 5.095033 -0.889401
v -0.000000 5.596424 -0.889401
v -0.000000 5.596424 -0.072114
v -0.000000 5.095033 -0.072114
v -0.000000 5.095033 -0.408644
v -0.000000 5.596424 -0.408644
v -0.000000 5.596424 -1.514386
v -0.000000 5.095033 -1.514386
v -0.000000 5.095033 -1.850916
v -0.000000 5.596424 -1.850916
v -0.000000 5.596424 -1.033629
v -0.000000 5.095033 -1.033629
v -0.000000 5.095033 -1.370159
v -0.000000 5.596424 -1.370159
v 0.000000 0.797397 1.370159
v 0.000000 0.797397 1.033629
v -0.000000 4.880151 1.033629
v -0.000000 4.880151 1.370159
v -0.000000 5.596424 1.370159
v -0.000000 5.095033 1.370159
v -0.000000 5.095033 1.033629
v -0.000000 5.596424 1.033629
v -0.000000 5.596424 1.850916
v -0.000000 5.095033 1.850916
v -0.000000 5.095033 1.514386
v -0.000000 5.596424 1.514386
v -0.000000 5.596424 0.408644
v -0.000000 5.095033 0.408644
v -0.000000 5.095033 0.072114
v -0.000000 5.596424 0.072114
v -0.000000 5.596424 0.889401
v -0.000000 5.095033 0.889401
v -0.000000 5.095033 0.552871
v -0.000000 5.596424 0.552871
v 0.000000 0.582515 1.850916
v 0.000000 0.081124 1.850916
v 0.000000 0.081124 1.514386
v 0.000000 0.582515 1.514386
v -0.000000 4.880151 0.408644
v 0.000000 0.797397 0.408644
v 0.000000 0.797397 0.072114
v -0.000000 4.880151 0.072114
v 0.000000 0.582515 0.889401
v 0.000000 0.081124 0.889401
v 0.000000 0.081124 0.552871
v 0.000000 0.582515 0.552871
v 0.000000 0.582515 -1.033629
v 0.000000 0.081124 -1.033629
v 0.000000 0.081124 -1.370159
v 0.000000 0.582515 -1.370159
v -0.000000 4.880151 1.850916
v 0.000000 0.797397 1.850916
v 0.000000 0.797397 1.514386
v -0.000000 4.880151 1.514386
v 0.000000 0.797397 -0.072114
v 0.000000 0.797397 -0.408644
v -0.000000 4.880151 -0.408644
v -0.000000 4.880151 -0.072114
vt 0.875000 0.875000
vt 1.000000 0.875000
vt 1.000000 0.875000
vt 0.875000 0.875000
vt 0.875000 0.875000
vt 1.000000 0.875000
vt 1.000000 1.000000
vt 1.000000 1.000000
vt 1.000000 1.000000
vt 0.875000 1.000000
vt 0.875000 1.000000
vt 0.875000 1.000000
vt 0.875000 0.375000
vt 1.000000 0.375000
vt 1.000000 0.375000
vt 0.875000 0.375000
vt 0.875000 0.375000
vt 1.000000 0.375000
vt 1.000000 0.500000
vt 1.000000 0.500000
vt 1.000000 0.500000
vt 0.875000 0.500000
vt 0.875000 0.500000
vt 0.875000 0.500000
vt 0.875000 0.125000
vt 1.000000 0.125000
vt 1.000000 0.125000
vt 0.875000 0.125000
vt 0.875000 0.125000
vt 1.000000 0.125000
vt 1.000000 0.250000
vt 1.000000 0.250000
vt 1.000000 0.250000
vt 0.875000 0.250000
vt 0.875000 0.250000
vt 0.875000 0.250000
vt 0.875000 0.250000
vt 0.875000 0.375000
vt 0.125000 0.375000
vt 0.125000 0.375000
vt 0.125000 0.375000
vt 0.125000 0.250000
vt 0.125000 0.250000
vt 0.125000 0.250000
vt 0.875000 0.750000
vt 0.875000 0.875000
vt 0.875000 0.750000
vt 0.875000 0.750000
vt 0.125000 0.875000
vt 0.125000 0.875000
vt 0.125000 0.875000
vt 0.125000 0.750000
vt 0.125000 0.750000
vt 0.125000 0.750000
vt 0.875000 0.625000
vt 1.000000 0.625000
vt 1.000000 0.625000
vt 0.875000 0.625000
vt 0.875000 0.625000
vt 1.000000 0.625000
vt 1.000000 0.750000
vt 1.000000 0.750000
vt 1.000000 0.750000
vt 0.875000 0.750000
vt 0.875000 0.500000
vt 1.000000 0.500000
vt 1.000000 0.625000
vt 0.875000 0.625000
vt 0.875000 0.625000
vt 0.875000 0.750000
vt 0.125000 0.750000
vt 0.125000 0.625000
vt 0.125000 0.625000
vt 0.125000 0.625000
vt 0.125000 0.875000
vt 0.875000 0.875000
vt 0.875000 1.000000
vt 0.125000 1.000000
vt 0.125000 1.000000
vt 0.125000 1.000000
vt 0.000000 0.625000
vt 0.125000 0.625000
vt 0.000000 0.625000
vt 0.000000 0.625000
vt 0.125000 0.750000
vt 0.000000 0.750000
vt 0.000000 0.750000
vt 0.000000 0.750000
vt 0.000000 0.500000
vt 0.125000 0.500000
vt 0.125000 0.500000
vt 0.000000 0.500000
vt 0.000000 0.500000
vt 0.125000 0.500000
vt 0.125000 0.625000
vt 0.000000 0.625000
vt 0.000000 0.875000
vt 0.125000 0.875000
vt 0.000000 0.875000
vt 0.000000 0.875000
vt 0.125000 1.000000
vt 0.000000 1.000000
vt 0.000000 1.000000
vt 0.000000 1.000000
vt 0.000000 0.750000
vt 0.125000 0.750000
vt 0.125000 0.875000
vt 0.000000 0.875000
vt 0.875000 0.125000
vt 0.875000 0.250000
vt 0.125000 0.250000
vt 0.125000 0.125000
vt 0.125000 0.125000
vt 0.125000 0.125000
vt 0.000000 0.125000
vt 0.125000 0.125000
vt 0.000000 0.125000
vt 0.000000 0.125000
vt 0.125000 0.250000
vt 0.000000 0.250000
vt 0.000000 0.250000
vt 0.000000 0.250000
vt 0.000000 0.000000
vt 0.125000 0.000000
vt 0.125000 0.000000
vt 0.000000 0.000000
vt 0.000000 0.000000
vt 0.125000 0.000000
vt 0.125000 0.125000
vt 0.000000 0.125000
vt 0.000000 0.375000
vt 0.125000 0.375000
vt 0.000000 0.375000
vt 0.000000 0.375000
vt 0.125000 0.500000
vt 0.000000 0.500000
vt 0.000000 0.250000
vt 0.125000 0.250000
vt 0.125000 0.375000
vt 0.000000 0.375000
vt 0.875000 0.000000
vt 1.000000 0.000000
vt 1.000000 0.000000
vt 0.875000 0.000000
vt 0.875000 0.000000
vt 1.000000 0.000000
vt 1.000000 0.125000
vt 0.875000 0.125000
vt 0.125000 0.375000
vt 0.875000 0.375000
vt 0.875000 0.500000
vt 0.125000 0.500000
vt 0.875000 0.250000
vt 1.000000 0.250000
vt 1.000000 0.375000
vt 0.875000 0.375000
vt 0.875000 0.750000
vt 1.000000 0.750000
vt 1.000000 0.875000
vt 0.875000 0.875000
vt 0.125000 0.000000
vt 0.875000 0.000000
vt 0.875000 0.125000
vt 0.125000 0.125000
vt 0.875000 0.500000
vt 0.875000 0.625000
vt 0.125000 0.625000
vt 0.125000 0.500000
vn -0.5287 -0.0000 -0.8488
vn 0.5287 0.0000 -0.8488
vn -0.6803 0.7330 0.0000
vn 0.6803 0.7330 0.0000
vn -0.5287 -0.0000 0.8488
vn 0.5287 0.0000 0.8488
vn -0.6803 -0.7330 -0.0000
vn 0.6803 -0.7330 -0.0000
usemtl None
s off
f 73/1/1 74/2/1 25/3/1 71/4/1
f 74/2/2 73/1/2 72/5/2 26/6/2
f 74/2/3 75/7/3 7/8/3 25/3/3
f 75/7/4 74/2/4 26/6/4 8/9/4
f 75/7/5 76/10/5 45/11/5 7/8/5
f 76/10/6 75/7/6 8/9/6 46/12/6
f 76/10/7 73/1/7 71/4/7 45/11/7
f 73/1/8 76/10/8 46/12/8 72/5/8
f 77/13/1 78/14/1 31/15/1 69/16/1
f 78/14/2 77/13/2 70/17/2 32/18/2
f 78/14/3 79/19/3 11/20/3 31/15/3
f 79/19/4 78/14/4 32/18/4 12/21/4
f 79/19/5 80/22/5 47/23/5 11/20/5
f 80/22/6 79/19/6 12/21/6 48/24/6
f 80/22/7 77/13/7 69/16/7 47/23/7
f 77/13/8 80/22/8 48/24/8 70/17/8
f 81/25/1 82/26/1 43/27/1 67/28/1
f 82/26/2 81/25/2 68/29/2 44/30/2
f 82/26/3 83/31/3 19/32/3 43/27/3
f 83/31/4 82/26/4 44/30/4 20/33/4
f 83/31/5 84/34/5 49/35/5 19/32/5
f 84/34/6 83/31/6 20/33/6 50/36/6
f 84/34/7 81/25/7 67/28/7 49/35/7
f 81/25/8 84/34/8 50/36/8 68/29/8
f 85/37/3 86/38/3 69/16/3 49/35/3
f 86/38/4 85/37/4 50/36/4 70/17/4
f 86/38/5 87/39/5 65/40/5 69/16/5
f 87/39/6 86/38/6 70/17/6 66/41/6
f 87/39/7 88/42/7 51/43/7 65/40/7
f 88/42/8 87/39/8 66/41/8 52/44/8
f 88/42/1 85/37/1 49/35/1 51/43/1
f 85/37/2 88/42/2 52/44/2 50/36/2
f 89/45/3 90/46/3 71/4/3 55/47/3
f 90/46/4 89/45/4 56/48/4 72/5/4
f 90/46/5 91/49/5 61/50/5 71/4/5
f 91/49/6 90/46/6 72/5/6 62/51/6
f 91/49/7 92/52/7 53/53/7 61/50/7
f 92/52/8 91/49/8 62/51/8 54/54/8
f 92/52/1 89/45/1 55/47/1 53/53/1
f 89/45/2 92/52/2 54/54/2 56/48/2
f 93/55/1 94/56/1 37/57/1 57/58/1
f 94/56/2 93/55/2 58/59/2 38/60/2
f 94/56/3 95/61/3 15/62/3 37/57/3
f 95/61/4 94/56/4 38/60/4 16/63/4
f 95/61/5 96/64/5 55/47/5 15/62/5
f 96/64/6 95/61/6 16/63/6 56/48/6
f 96/64/7 93/55/7 57/58/7 55/47/7
f 93/55/8 96/64/8 56/48/8 58/59/8
f 97/65/1 98/66/1 11/20/1 47/23/1
f 98/66/2 97/65/2 48/24/2 12/21/2
f 98/66/3 99/67/3 37/57/3 11/20/3
f 99/67/4 98/66/4 12/21/4 38/60/4
f 99/67/5 100/68/5 57/58/5 37/57/5
f 100/68/6 99/67/6 38/60/6 58/59/6
f 100/68/7 97/65/7 47/23/7 57/58/7
f 97/65/8 100/68/8 58/59/8 48/24/8
f 101/69/3 102/70/3 55/47/3 57/58/3
f 102/70/4 101/69/4 58/59/4 56/48/4
f 102/70/5 103/71/5 53/53/5 55/47/5
f 103/71/6 102/70/6 56/48/6 54/54/6
f 103/71/7 104/72/7 59/73/7 53/53/7
f 104/72/8 103/71/8 54/54/8 60/74/8
f 104/72/1 101/69/1 57/58/1 59/73/1
f 101/69/2 104/72/2 60/74/2 58/59/2
f 105/75/1 106/76/1 71/4/1 61/50/1
f 106/76/2 105/75/2 62/51/2 72/5/2
f 106/76/3 107/77/3 45/11/3 71/4/3
f 107/77/4 106/76/4 72/5/4 46/12/4
f 107/77/5 108/78/5 27/79/5 45/11/5
f 108/78/6 107/77/6 46/12/6 28/80/6
f 108/78/7 105/75/7 61/50/7 27/79/7
f 105/75/8 108/78/8 28/80/8 62/51/8
f 109/81/1 110/82/1 59/73/1 29/83/1
f 110/82/2 109/81/2 30/84/2 60/74/2
f 110/82/3 111/85/3 53/53/3 59/73/3
f 111/85/4 110/82/4 60/74/4 54/54/4
f 111/85/5 112/86/5 17/87/5 53/53/5
f 112/86/6 111/85/6 54/54/6 18/88/6
f 112/86/7 109/81/7 29/83/7 17/87/7
f 109/81/8 112/86/8 18/88/8 30/84/8
f 113/89/1 114/90/1 33/91/1 9/92/1
f 114/90/2 113/89/2 10/93/2 34/94/2
f 114/90/3 115/95/3 59/73/3 33/91/3
f 115/95/4 114/90/4 34/94/4 60/74/4
f 115/95/5 116/96/5 29/83/5 59/73/5
f 116/96/6 115/95/6 60/74/6 30/84/6
f 116/96/7 113/89/7 9/92/7 29/83/7
f 113/89/8 116/96/8 30/84/8 10/93/8
f 117/97/1 118/98/1 61/50/1 39/99/1
f 118/98/2 117/97/2 40/100/2 62/51/2
f 118/98/3 119/101/3 27/79/3 61/50/3
f 119/101/4 118/98/4 62/51/4 28/80/4
f 119/101/5 120/102/5 5/103/5 27/79/5
f 120/102/6 119/101/6 28/80/6 6/104/6
f 120/102/7 117/97/7 39/99/7 5/103/7
f 117/97/8 120/102/8 6/104/8 40/100/8
f 121/105/1 122/106/1 53/53/1 17/87/1
f 122/106/2 121/105/2 18/88/2 54/54/2
f 122/106/3 123/107/3 61/50/3 53/53/3
f 123/107/4 122/106/4 54/54/4 62/51/4
f 123/107/5 124/108/5 39/99/5 61/50/5
f 124/108/6 123/107/6 62/51/6 40/100/6
f 124/108/7 121/105/7 17/87/7 39/99/7
f 121/105/8 124/108/8 40/100/8 18/88/8
f 125/109/3 126/110/3 49/35/3 67/28/3
f 126/110/4 125/109/4 68/29/4 50/36/4
f 126/110/5 127/111/5 51/43/5 49/35/5
f 127/111/6 126/110/6 50/36/6 52/44/6
f 127/111/7 128/112/7 63/113/7 51/43/7
f 128/112/8 127/111/8 52/44/8 64/114/8
f 128/112/1 125/109/1 67/28/1 63/113/1
f 125/109/2 128/112/2 64/114/2 68/29/2
f 129/115/1 130/116/1 63/113/1 21/117/1
f 130/116/2 129/115/2 22/118/2 64/114/2
f 130/116/3 131/119/3 51/43/3 63/113/3
f 131/119/4 130/116/4 64/114/4 52/44/4
f 131/119/5 132/120/5 13/121/5 51/43/5
f 132/120/6 131/119/6 52/44/6 14/122/6
f 132/120/7 129/115/7 21/117/7 13/121/7
f 129/115/8 132/120/8 14/122/8 22/118/8
f 133/123/1 134/124/1 41/125/1 1/126/1
f 134/124/2 133/123/2 2/127/2 42/128/2
f 134/124/3 135/129/3 63/113/3 41/125/3
f 135/129/4 134/124/4 42/128/4 64/114/4
f 135/129/5 136/130/5 21/117/5 63/113/5
f 136/130/6 135/129/6 64/114/6 22/118/6
f 136/130/7 133/123/7 1/126/7 21/117/7
f 133/123/8 136/130/8 22/118/8 2/127/8
f 137/131/1 138/132/1 65/40/1 35/133/1
f 138/132/2 137/131/2 36/134/2 66/41/2
f 138/132/3 139/135/3 33/91/3 65/40/3
f 139/135/4 138/132/4 66/41/4 34/94/4
f 139/135/5 140/136/5 9/92/5 33/91/5
f 140/136/6 139/135/6 34/94/6 10/93/6
f 140/136/7 137/131/7 35/133/7 9/92/7
f 137/131/8 140/136/8 10/93/8 36/134/8
f 141/137/1 142/138/1 51/43/1 13/121/1
f 142/138/2 141/137/2 14/122/2 52/44/2
f 142/138/3 143/139/3 65/40/3 51/43/3
f 143/139/4 142/138/4 52/44/4 66/41/4
f 143/139/5 144/140/5 35/133/5 65/40/5
f 144/140/6 143/139/6 66/41/6 36/134/6
f 144/140/7 141/137/7 13/121/7 35/133/7
f 141/137/8 144/140/8 36/134/8 14/122/8
f 145/141/1 146/142/1 3/143/1 23/144/1
f 146/142/2 145/141/2 24/145/2 4/146/2
f 146/142/3 147/147/3 43/27/3 3/143/3
f 147/147/4 146/142/4 4/146/4 44/30/4
f 147/147/5 148/148/5 67/28/5 43/27/5
f 148/148/6 147/147/6 44/30/6 68/29/6
f 148/148/7 145/141/7 23/144/7 67/28/7
f 145/141/8 148/148/8 68/29/8 24/145/8
f 149/149/1 150/150/1 69/16/1 65/40/1
f 150/150/2 149/149/2 66/41/2 70/17/2
f 150/150/3 151/151/3 47/23/3 69/16/3
f 151/151/4 150/150/4 70/17/4 48/24/4
f 151/151/5 152/152/5 33/91/5 47/23/5
f 152/152/6 151/151/6 48/24/6 34/94/6
f 152/152/7 149/149/7 65/40/7 33/91/7
f 149/149/8 152/152/8 34/94/8 66/41/8
f 153/153/1 154/154/1 19/32/1 49/35/1
f 154/154/2 153/153/2 50/36/2 20/33/2
f 154/154/3 155/155/3 31/15/3 19/32/3
f 155/155/4 154/154/4 20/33/4 32/18/4
f 155/155/5 156/156/5 69/16/5 31/15/5
f 156/156/6 155/155/6 32/18/6 70/17/6
f 156/156/7 153/153/7 49/35/7 69/16/7
f 153/153/8 156/156/8 70/17/8 50/36/8
f 157/157/1 158/158/1 15/62/1 55/47/1
f 158/158/2 157/157/2 56/48/2 16/63/2
f 158/158/3 159/159/3 25/3/3 15/62/3
f 159/159/4 158/158/4 16/63/4 26/6/4
f 159/159/5 160/160/5 71/4/5 25/3/5
f 160/160/6 159/159/6 26/6/6 72/5/6
f 160/160/7 157/157/7 55/47/7 71/4/7
f 157/157/8 160/160/8 72/5/8 56/48/8
f 161/161/1 162/162/1 23/144/1 41/125/1
f 162/162/2 161/161/2 42/128/2 24/145/2
f 162/162/3 163/163/3 67/28/3 23/144/3
f 163/163/4 162/162/4 24/145/4 68/29/4
f 163/163/5 164/164/5 63/113/5 67/28/5
f 164/164/6 163/163/6 68/29/6 64/114/6
f 164/164/7 161/161/7 41/125/7 63/113/7
f 161/161/8 164/164/8 64/114/8 42/128/8
f 165/165/3 166/166/3 57/58/3 47/23/3
f 166/166/4 165/165/4 48/24/4 58/59/4
f 166/166/5 167/167/5 59/73/5 57/58/5
f 167/167/6 166/166/6 58/59/6 60/74/6
f 167/167/7 168/168/7 33/91/7 59/73/7
f 168/168/8 167/167/8 60/74/8 34/94/8
f 168/168/1 165/165/1 47/23/1 33/91/1
f 165/165/2 168/168/2 34/94/2 48/24/2
